{"title":"Inglorious Basterds.3gp","uid":5120960,"size":78167538,"categoryP":"video","categoryS":"handheld","magnet":"?xt=urn:btih:438bf0605639881dd0e31eb919d224933be2ebf6&amp;dn=Inglorious+Basterds.3gp&amp;tr=udp%3A%2F%2Ftracker.openbittorrent.com%3A80&amp;tr=udp%3A%2F%2Fopen.demonii.com%3A1337&amp;tr=udp%3A%2F%2Ftracker.coppersurfer.tk%3A6969&amp;tr=udp%3A%2F%2Fexodus.desync.com%3A6969","seeders":0,"leechers":0,"uploader":"chitchatid","files":1,"time":1255347577,"description":"General\nComplete name                    : Inglorious Basterds.3gp\nFormat                           : MPEG-4\nFormat profile                   : 3GPP Media Release 4\nCodec ID                         : 3gp4\nFile size                        : 74.5 MiB\nDuration                         : 2h 28mn\nOverall bit rate                 : 70.1 Kbps\nEncoded date                     : UTC 1970-01-01 00:00:00\nTagged date                      : UTC 1970-01-01 00:00:00\n\nVideo\nID                               : 1\nFormat                           : H.263\nCodec ID                         : s263\nDuration                         : 2h 28mn\nBit rate mode                    : Variable\nBit rate                         : 55.1 Kbps\nWidth                            : 128 pixels\nHeight                           : 96 pixels\nDisplay aspect ratio             : 4/3\nFrame rate mode                  : Constant\nFrame rate                       : 10.000 fps\nBits/(Pixel*Frame)               : 0.448\nStream size                      : 58.5 MiB (79%)\nEncoded date                     : UTC 1970-01-01 00:00:00\nTagged date                      : UTC 1970-01-01 00:00:00\n\nAudio\nID                               : 2\nFormat                           : AMR\nFormat/Info                      : Adaptive Multi-Rate\nFormat profile                   : Narrow band\nCodec ID                         : samr\nDuration                         : 2h 28mn\nBit rate mode                    : Constant\nBit rate                         : 12.8 Kbps\nChannel(s)                       : 2 channels\nSampling rate                    : 8 000 Hz\nResolution                       : 16 bits\nStream size                      : 13.6 MiB (18%)\nEncoded date                     : UTC 1970-01-01 00:00:00\nTagged date                      : UTC 1970-01-01 00:00:00\n\n","torrent":{"xt":"urn:btih:438bf0605639881dd0e31eb919d224933be2ebf6","amp;dn":"Inglorious+Basterds.3gp","amp;tr":["udp%3A%2F%2Ftracker.openbittorrent.com%3A80","udp%3A%2F%2Fopen.demonii.com%3A1337","udp%3A%2F%2Ftracker.coppersurfer.tk%3A6969","udp%3A%2F%2Fexodus.desync.com%3A6969"],"infoHash":"438bf0605639881dd0e31eb919d224933be2ebf6","infoHashBuffer":{"type":"Buffer","data":[67,139,240,96,86,57,136,29,208,227,30,185,25,210,36,147,59,226,235,246]},"announce":[],"urlList":[]}}